<?xml version="1.0"?>
<svg xmlns="http://www.w3.org/2000/svg" viewBox="0 0 380 380" width="380" height="380"><defs><style>.cls-1{fill:#3a96dd;}.cls-2{fill:#fff;}</style></defs><title>Bot-framework-380x380</title><g id="Layer_2" data-name="Layer 2"><g id="Layer_1-2" data-name="Layer 1"><rect class="cls-1" width="380" height="380"></rect><path class="cls-2" d="M191.73,81.27A108.73,108.73,0,1,1,83,190,108.85,108.85,0,0,1,191.73,81.27m0-15.53A124.26,124.26,0,1,0,316,190,124.26,124.26,0,0,0,191.73,65.74Z"></path><circle class="cls-2" cx="172.31" cy="190" r="11.65"></circle><circle class="cls-2" cx="211.14" cy="190" r="11.65"></circle><path class="cls-2" d="M162.94,257.62l-62.13-62.13a7.76,7.76,0,0,1,0-11l62.13-62.13,11,11L117.28,190l56.64,56.64Z"></path><path class="cls-2" d="M220.52,257.62l-11-11L266.17,190l-56.64-56.64,11-11,62.13,62.13a7.76,7.76,0,0,1,0,11Z"></path></g></g></svg>